<?xml version="1.0" encoding="utf-8"?>
<!-- Generator: Adobe Illustrator 21.0.0, SVG Export Plug-In . SVG Version: 6.00 Build 0)  -->
<svg version="1.1" id="Layer_1" xmlns="http://www.w3.org/2000/svg" xmlns:xlink="http://www.w3.org/1999/xlink" x="0px" y="0px"
	 viewBox="0 0 450 450" style="enable-background:new 0 0 450 450;" xml:space="preserve">
<g>
	<defs>
		<path id="SVGID_1_" d="M256.4,306.7l168.8-101.6c5.1-3.1,4.7-10.6-0.8-13.1L216.6,98.6c-2.4-1.1-5.2-0.8-7.3,0.7L81.9,190.4
			c-4.3,3.1-4.1,9.5,0.4,12.3l166.4,103.9C251,308.1,254,308.1,256.4,306.7z"/>
	</defs>
	<clipPath id="SVGID_2_">
		<use xlink:href="#SVGID_1_"  style="overflow:visible;"/>
	</clipPath>
	<use xlink:href="#SVGID_1_"  style="overflow:visible;fill:none;stroke:#828282;stroke-miterlimit:10;"/>
</g>
<g>
	<defs>
		<path id="SVGID_3_" d="M188.2,85.6L61.7,28.7c-2.3-1-4.9,0.6-5,3.1l-3.2,156l0.5,0.3l134.8-96.5C191,90.1,190.6,86.7,188.2,85.6z"
			/>
	</defs>
	<clipPath id="SVGID_4_">
		<use xlink:href="#SVGID_3_"  style="overflow:visible;"/>
	</clipPath>
	<use xlink:href="#SVGID_3_"  style="overflow:visible;fill:none;stroke:#828282;stroke-miterlimit:10;"/>
</g>
<g>
	<defs>
		<path id="SVGID_5_" d="M55.8,423.6l169-101.7c3.3-2,3.4-6.8,0.1-8.8C165.7,276.4,97.5,234,60.2,210.4c-3.4-2.2-7.8,0.2-7.9,4.3
			L48,419.1C47.9,423.2,52.3,425.7,55.8,423.6z"/>
	</defs>
	<clipPath id="SVGID_6_">
		<use xlink:href="#SVGID_5_"  style="overflow:visible;"/>
	</clipPath>
	<use xlink:href="#SVGID_5_"  style="overflow:visible;fill:none;stroke:#828282;stroke-miterlimit:10;"/>
</g>
</svg>
